<mxfile host="app.diagrams.net" modified="2023-04-02T21:30:40.158Z" agent="Mozilla/5.0 (Windows NT 10.0; Win64; x64) AppleWebKit/537.36 (KHTML, like Gecko) Chrome/111.0.0.0 Safari/537.36" etag="oVBwHy_W61eNWHyRzG9v" version="21.1.1" type="github">
  <diagram name="Page-1" id="Je0AldZPcqReI0aS4hjS">
    <mxGraphModel dx="1434" dy="834" grid="1" gridSize="10" guides="1" tooltips="1" connect="1" arrows="1" fold="1" page="1" pageScale="1" pageWidth="850" pageHeight="1100" math="0" shadow="0">
      <root>
        <mxCell id="0" />
        <mxCell id="1" parent="0" />
        <mxCell id="uDGIG_SQnXnqYR5ADsma-1" value="" style="rounded=1;whiteSpace=wrap;html=1;fillColor=#E1BE6A;" parent="1" vertex="1">
          <mxGeometry x="10" y="40" width="460" height="350" as="geometry" />
        </mxCell>
        <mxCell id="uDGIG_SQnXnqYR5ADsma-2" value="start button" style="rounded=1;whiteSpace=wrap;html=1;fillColor=#E4DFDA;" parent="1" vertex="1">
          <mxGeometry x="180" y="250" width="120" height="20" as="geometry" />
        </mxCell>
        <mxCell id="uDGIG_SQnXnqYR5ADsma-3" value="tutorial button" style="rounded=1;whiteSpace=wrap;html=1;fillColor=#E4DFDA;" parent="1" vertex="1">
          <mxGeometry x="180" y="290" width="120" height="20" as="geometry" />
        </mxCell>
        <mxCell id="uDGIG_SQnXnqYR5ADsma-4" value="Title" style="rounded=0;whiteSpace=wrap;html=1;fillColor=#40B0A6;" parent="1" vertex="1">
          <mxGeometry x="110" y="70" width="250" height="160" as="geometry" />
        </mxCell>
        <mxCell id="CQbInTFWRahfCe4FfecC-12" value="Actor" style="shape=umlActor;verticalLabelPosition=bottom;verticalAlign=top;html=1;outlineConnect=0;" vertex="1" parent="1">
          <mxGeometry x="60" y="310" width="10" height="60" as="geometry" />
        </mxCell>
        <mxCell id="CQbInTFWRahfCe4FfecC-10" value="background animation" style="rounded=1;whiteSpace=wrap;html=1;fillColor=#117733;" vertex="1" parent="1">
          <mxGeometry x="50" y="370" width="380" height="20" as="geometry" />
        </mxCell>
        <mxCell id="CQbInTFWRahfCe4FfecC-6" value="settings" style="rounded=1;whiteSpace=wrap;html=1;fillColor=#E4DFDA;" vertex="1" parent="1">
          <mxGeometry x="180" y="330" width="120" height="20" as="geometry" />
        </mxCell>
        <mxCell id="CQbInTFWRahfCe4FfecC-43" value="" style="rounded=1;whiteSpace=wrap;html=1;fillColor=#D4B483;" vertex="1" parent="1">
          <mxGeometry x="550" y="120" width="460" height="350" as="geometry" />
        </mxCell>
        <mxCell id="CQbInTFWRahfCe4FfecC-44" value="start button" style="rounded=1;whiteSpace=wrap;html=1;fillColor=#E4DFDA;" vertex="1" parent="1">
          <mxGeometry x="860" y="160" width="120" height="20" as="geometry" />
        </mxCell>
        <mxCell id="CQbInTFWRahfCe4FfecC-45" value="tutorial button" style="rounded=1;whiteSpace=wrap;html=1;fillColor=#E4DFDA;" vertex="1" parent="1">
          <mxGeometry x="860" y="220" width="120" height="20" as="geometry" />
        </mxCell>
        <mxCell id="CQbInTFWRahfCe4FfecC-46" value="Title" style="rounded=0;whiteSpace=wrap;html=1;fillColor=#48A9A6;" vertex="1" parent="1">
          <mxGeometry x="585" y="150" width="250" height="160" as="geometry" />
        </mxCell>
        <mxCell id="CQbInTFWRahfCe4FfecC-47" value="Actor" style="shape=umlActor;verticalLabelPosition=bottom;verticalAlign=top;html=1;outlineConnect=0;" vertex="1" parent="1">
          <mxGeometry x="600" y="390" width="10" height="60" as="geometry" />
        </mxCell>
        <mxCell id="CQbInTFWRahfCe4FfecC-48" value="background animation" style="rounded=1;whiteSpace=wrap;html=1;fillColor=#00CC00;" vertex="1" parent="1">
          <mxGeometry x="590" y="450" width="380" height="20" as="geometry" />
        </mxCell>
        <mxCell id="CQbInTFWRahfCe4FfecC-49" value="settings" style="rounded=1;whiteSpace=wrap;html=1;fillColor=#E4DFDA;" vertex="1" parent="1">
          <mxGeometry x="860" y="285" width="120" height="20" as="geometry" />
        </mxCell>
        <mxCell id="CQbInTFWRahfCe4FfecC-50" value="" style="rounded=1;whiteSpace=wrap;html=1;fillColor=#D4B483;" vertex="1" parent="1">
          <mxGeometry x="545" y="540" width="460" height="350" as="geometry" />
        </mxCell>
        <mxCell id="CQbInTFWRahfCe4FfecC-51" value="start button" style="rounded=1;whiteSpace=wrap;html=1;fillColor=#E4DFDA;" vertex="1" parent="1">
          <mxGeometry x="570" y="750" width="120" height="20" as="geometry" />
        </mxCell>
        <mxCell id="CQbInTFWRahfCe4FfecC-52" value="tutorial button" style="rounded=1;whiteSpace=wrap;html=1;fillColor=#E4DFDA;" vertex="1" parent="1">
          <mxGeometry x="715" y="750" width="120" height="20" as="geometry" />
        </mxCell>
        <mxCell id="CQbInTFWRahfCe4FfecC-53" value="Title" style="rounded=0;whiteSpace=wrap;html=1;fillColor=#48A9A6;" vertex="1" parent="1">
          <mxGeometry x="655" y="570" width="250" height="160" as="geometry" />
        </mxCell>
        <mxCell id="CQbInTFWRahfCe4FfecC-54" value="Actor" style="shape=umlActor;verticalLabelPosition=bottom;verticalAlign=top;html=1;outlineConnect=0;" vertex="1" parent="1">
          <mxGeometry x="595" y="810" width="10" height="60" as="geometry" />
        </mxCell>
        <mxCell id="CQbInTFWRahfCe4FfecC-55" value="background animation" style="rounded=1;whiteSpace=wrap;html=1;fillColor=#00CC00;" vertex="1" parent="1">
          <mxGeometry x="585" y="870" width="380" height="20" as="geometry" />
        </mxCell>
        <mxCell id="CQbInTFWRahfCe4FfecC-56" value="settings" style="rounded=1;whiteSpace=wrap;html=1;fillColor=#E4DFDA;" vertex="1" parent="1">
          <mxGeometry x="860" y="750" width="120" height="20" as="geometry" />
        </mxCell>
      </root>
    </mxGraphModel>
  </diagram>
</mxfile>
